<svg id="Layer_1" data-name="Layer 1" xmlns="http://www.w3.org/2000/svg" viewBox="0 0 738.38 518.25"><defs><style>.cls-1{fill:#eef5dd;}.cls-2{fill:#88c547;}.cls-3{fill:#0baa4b;}.cls-4{fill:#86c550;}.cls-5{fill:#0ea34a;}</style></defs><title>Devline</title><rect class="cls-1" width="738.38" height="518.25"/><path class="cls-2" d="M247,255.59a65.16,65.16,0,0,1-.43,7.43A64.32,64.32,0,0,0,166,249.6a64.35,64.35,0,0,1,42.44-53A64.35,64.35,0,0,1,247,255.59Z"/><path class="cls-3" d="M246.52,263a64.35,64.35,0,0,1-42.47,53.23A64.33,64.33,0,0,1,165.5,257.3a63.06,63.06,0,0,1,.46-7.7A64.32,64.32,0,0,1,246.52,263Z"/><path class="cls-4" d="M204.05,316.25a64.44,64.44,0,0,1-69.85-18.37A64.27,64.27,0,0,1,166,249.6a63.06,63.06,0,0,0-.46,7.7A64.33,64.33,0,0,0,204.05,316.25Z"/><path class="cls-2" d="M262.38,305.32a65.13,65.13,0,0,1-.45,7.7,64.45,64.45,0,0,1-57.88,3.23A64.35,64.35,0,0,0,246.52,263,64.06,64.06,0,0,1,262.38,305.32Z"/><path class="cls-5" d="M277.7,290.73v-56.9h12.61v56.9Zm11.07,0V279h10.38a20,20,0,0,0,7.15-1.2,14.82,14.82,0,0,0,5.34-3.38,15,15,0,0,0,3.39-5.31,20.8,20.8,0,0,0,0-13.87,14.69,14.69,0,0,0-3.39-5.23,13.88,13.88,0,0,0-5.34-3.23,22,22,0,0,0-7.15-1.08H288.77V233.83h9.76a36.32,36.32,0,0,1,13.31,2.23,27.49,27.49,0,0,1,9.53,6.07,24.93,24.93,0,0,1,5.73,8.81A29.2,29.2,0,0,1,329,261.36v1.69a28.08,28.08,0,0,1-1.88,10.07,26.48,26.48,0,0,1-5.73,8.92,27.48,27.48,0,0,1-9.53,6.34,34.66,34.66,0,0,1-13.31,2.35Z"/><path class="cls-5" d="M337.75,290.42V234.29h12.3v56.13Zm10.76-45.67V234.29h24v10.46Zm0,22.37V256.67h22.76v10.45Zm0,23.3V280H373v10.46Z"/><path class="cls-5" d="M395.8,290.42l-17.15-56.13h13.08l13.53,47.37-2.92-1.46h7.84l-3.08,1.46,12.54-47.37h12.61l-15.92,56.13Z"/><path class="cls-4" d="M440.32,290.42V234.29h12.61v56.13Zm11.07,0V279.35h110.8v11.07Z"/><path class="cls-2" d="M467.29,275.71V234.29h9.3v41.42Z"/><path class="cls-2" d="M486,275.71V234.29h15.26l15.61,33.87h1.93l-1.14,1v-34.9h8.74v41.42H511l-15.6-33.87H493.5l1.14-1v34.89Z"/><path class="cls-2" d="M535.71,275.71V234.29h9.08v41.42Zm7.95-33.7v-7.72h17.7V242Zm0,16.51V250.8h16.79v7.72Zm0,17.19V268h18.1v7.72Z"/></svg>